<svg width="48" height="48" viewBox="0 0 48 48" fill="none" xmlns="http://www.w3.org/2000/svg">
<path d="M24 9.90686L22.5126 11.9163L24.0906 13.0843L25.5995 11.8282L24 9.90686ZM7.84682 6.28931C6.62589 6.93406 6.1588 8.44649 6.80355 9.66742C7.4483 10.8883 8.96072 11.3554 10.1817 10.7107L7.84682 6.28931ZM5.89122 16.1495C6.24993 14.8162 5.45986 13.4445 4.12656 13.0858C2.79326 12.7271 1.42161 13.5172 1.06291 14.8505L5.89122 16.1495ZM29.7737 42.9632C30.9618 42.2598 31.3547 40.7264 30.6512 39.5383C29.9478 38.3502 28.4144 37.9573 27.2263 38.6608L29.7737 42.9632ZM34.2968 33.3504C33.2861 34.291 33.2293 35.8729 34.17 36.8836C35.1107 37.8943 36.6926 37.9511 37.7032 37.0104L34.2968 33.3504ZM22.3551 42.3232L23.3997 40.0519L22.3551 42.3232ZM25.6493 42.3207L26.6956 44.5912L25.6493 42.3207ZM0.5 19.3026C0.5 25.1928 4.04321 30.7033 8.12045 34.9683C12.2545 39.2927 17.3503 42.7732 21.3106 44.5945L23.3997 40.0519C20.0265 38.5006 15.4448 35.3942 11.7346 31.5132C7.96766 27.5728 5.5 23.2593 5.5 19.3026H0.5ZM47.5 18.4855C47.5 11.5149 43.1319 7.07262 37.9084 5.34888C32.8308 3.67325 26.6527 4.44567 22.4005 7.98549L25.5995 11.8282C28.3473 9.5407 32.6692 8.88515 36.3416 10.097C39.8681 11.2608 42.5 14.0216 42.5 18.4855H47.5ZM25.4874 7.89744C20.3368 4.08504 13.2268 3.44827 7.84682 6.28931L10.1817 10.7107C13.7618 8.8201 18.8146 9.17898 22.5126 11.9163L25.4874 7.89744ZM1.06291 14.8505C0.692564 16.2271 0.5 17.7139 0.5 19.3026H5.5C5.5 18.1192 5.6432 17.0714 5.89122 16.1495L1.06291 14.8505ZM26.6956 44.5912C27.6738 44.1404 28.71 43.593 29.7737 42.9632L27.2263 38.6608C26.2912 39.2144 25.4069 39.6797 24.603 40.0502L26.6956 44.5912ZM37.7032 37.0104C42.7519 32.3115 47.5 25.7399 47.5 18.4855H42.5C42.5 23.6309 39.0164 28.9576 34.2968 33.3504L37.7032 37.0104ZM21.3106 44.5945C23.0244 45.3827 24.986 45.3791 26.6956 44.5912L24.603 40.0502C24.2165 40.2283 23.7827 40.228 23.3997 40.0519L21.3106 44.5945Z" fill="#F3F5F7"/>
<path d="M3 4L43 44" stroke="#F3F5F7" stroke-width="4" stroke-linecap="round" stroke-linejoin="round"/>
</svg>
