<svg width="40" height="40" viewBox="0 0 40 40" fill="none" xmlns="http://www.w3.org/2000/svg">
<mask id="path-1-inside-1_7_369" fill="white">
<path d="M0 14.1972C0 1.7146 12.5 -1.30945 20 4.6275C26.6667 -1.30773 40 1.71867 40 13.365C40 24.2154 28.4268 34.3117 21.4538 37.6986C20.5326 38.1461 19.4675 38.1459 18.546 37.699C11.573 34.3166 0 24.2804 0 14.1972Z"/>
</mask>
<path d="M20 4.6275L17.5173 7.76379L20.151 9.84859L22.6598 7.61506L20 4.6275ZM18.546 37.699L16.8003 41.2979L18.546 37.699ZM21.4538 37.6986L23.2015 41.2967H23.2015L21.4538 37.6986ZM22.4827 1.4912C17.6635 -2.32365 11.1764 -3.33049 5.74221 -1.22475C0.0473374 0.98202 -4 6.40599 -4 14.1972H4C4 9.50582 6.20266 7.17646 8.63279 6.23478C11.3236 5.19208 14.8365 5.64169 17.5173 7.76379L22.4827 1.4912ZM-4 14.1972C-4 20.695 -0.340779 26.6541 3.68209 31.1336C7.77169 35.6874 12.8194 39.3669 16.8003 41.2979L20.2918 34.1C17.2996 32.6486 13.0743 29.6189 9.63418 25.7882C6.12729 21.8833 4 17.7827 4 14.1972H-4ZM23.2015 41.2967C27.1916 39.3586 32.252 35.6515 36.3524 30.9643C40.413 26.3225 44 20.1759 44 13.365H36C36 17.4045 33.8004 21.7312 30.3312 25.6969C26.9017 29.6172 22.689 32.6518 19.7062 34.1006L23.2015 41.2967ZM44 13.365C44 5.70676 39.4619 0.618343 33.8312 -1.36883C28.4518 -3.2673 21.8837 -2.40508 17.3402 1.63993L22.6598 7.61506C24.7829 5.72484 28.2148 5.13265 31.1688 6.17515C33.8714 7.12895 36 9.37688 36 13.365H44ZM16.8003 41.2979C18.8236 42.2794 21.1762 42.2804 23.2015 41.2967L19.7062 34.1006C19.889 34.0118 20.1114 34.0125 20.2918 34.1L16.8003 41.2979Z" fill="#F3F5F7" mask="url(#path-1-inside-1_7_369)"/>
</svg>
