<svg width="48" height="48" viewBox="0 0 48 48" fill="none" xmlns="http://www.w3.org/2000/svg">
<path d="M35 44H19C12.9249 44 8 39.0751 8 33V15C8 8.92487 12.9249 4 19 4H30C35.5228 4 40 8.47715 40 14V29C40 31.7614 37.7614 34 35 34V34C32.2386 34 30 31.7614 30 29V20C30 16.6863 27.3137 14 24 14H23C20.2386 14 18 16.2386 18 19V19" stroke="#F3F5F7" stroke-width="4" stroke-linecap="round" stroke-linejoin="round"/>
<path d="M23 24H30V28C30 31.3137 27.3137 34 24 34H23C20.2386 34 18 31.7614 18 29C18 26.2386 20.2386 24 23 24Z" stroke="#F3F5F7" stroke-width="4" stroke-linecap="round" stroke-linejoin="round"/>
</svg>
