<svg width="48" height="48" viewBox="0 0 48 48" fill="none" xmlns="http://www.w3.org/2000/svg">
<path fill-rule="evenodd" clip-rule="evenodd" d="M9.00014 20C10.1047 20 11.0001 20.8954 11.0001 22V28.7672C11.0001 31.2736 10.4683 33.737 9.45563 36H24.0001C25.1047 36 26.0001 36.8954 26.0001 38C26.0001 39.1046 25.1047 40 24.0001 40H6.02228C5.61785 40.0048 5.20859 39.8874 4.85326 39.6385C4.82817 39.6209 4.80348 39.6028 4.7792 39.5841C4.31787 39.2289 4.05297 38.7091 4.00716 38.1678C3.96809 37.7061 4.08839 37.2287 4.38212 36.8244C6.08368 34.4825 7.00014 31.662 7.00014 28.7672V22C7.00014 20.8954 7.89557 20 9.00014 20Z" fill="#F3F5F7"/>
<path d="M24 8C31.1797 8 37 13.8203 37 21V31.118C37 32.8259 37.4139 34.4997 38.1958 36H36C34.8954 36 34 36.8954 34 38C34 39.1046 34.8954 40 36 40H42C42.7548 40 43.4453 39.575 43.7855 38.9012C44.1256 38.2273 44.0573 37.4194 43.609 36.8121L42.283 35.0161C41.4497 33.8873 41 32.5211 41 31.118V21C41 11.6112 33.3888 4 24 4C18.1934 4 13.0668 6.91116 10 11.3536L13.0436 14C15.3538 10.3917 19.3976 8 24 8Z" fill="#F3F5F7"/>
<path d="M19 42C19.4727 44.2822 21.5317 46 24 46C26.4683 46 28.5273 44.2822 29 42H19Z" fill="#F3F5F7"/>
<path d="M29 6C28.5273 3.71776 26.4683 2 24 2C21.5317 2 19.4727 3.71776 19 6L29 6Z" fill="#F3F5F7"/>
<path d="M4 6L43 45" stroke="#F3F5F7" stroke-width="4" stroke-linecap="round" stroke-linejoin="round"/>
</svg>
