<svg width="48" height="48" viewBox="0 0 48 48" fill="none" xmlns="http://www.w3.org/2000/svg">
<path d="M3 24C4.21727 21.2437 5.92221 18.7684 8 16.6933M45 24C41.3511 15.7379 33.3203 10 24 10C20.0175 10 16.2704 11.0476 13 12.8922" stroke="#F3F5F7" stroke-width="4" stroke-linecap="round"/>
<path d="M17.0075 21.8358C16.62 21.4483 15.9889 21.442 15.6329 21.8587C13.9911 23.7804 13 26.2744 13 29C13 35.0751 17.9248 40 24 40C26.7254 40 29.2196 39.0087 31.1414 37.367C31.5581 37.0111 31.5519 36.3799 31.1644 35.9924L17.0075 21.8358Z" fill="#F3F5F7"/>
<path d="M34.1279 33.2996C34.4497 32.543 34.689 31.743 34.8345 30.9108C34.9209 30.417 34.5015 30 34 30C32.6367 30 31.3315 29.7521 30.127 29.2988L34.1279 33.2996Z" fill="#F3F5F7"/>
<path d="M23.7012 22.8729C23.248 21.6683 23 20.3631 23 19C23 18.4988 22.583 18.0789 22.0894 18.1653C21.2568 18.3111 20.457 18.5504 19.7002 18.8721L23.7012 22.8729Z" fill="#F3F5F7"/>
<path fill-rule="evenodd" clip-rule="evenodd" d="M1.58579 1.58579C2.36683 0.804738 3.63317 0.804738 4.41421 1.58579L46.4142 43.5858C47.1953 44.3668 47.1953 45.6332 46.4142 46.4142C45.6332 47.1953 44.3668 47.1953 43.5858 46.4142L1.58579 4.41421C0.804738 3.63317 0.804738 2.36683 1.58579 1.58579Z" fill="#F3F5F7"/>
</svg>
