<svg width="48" height="48" viewBox="0 0 48 48" fill="none" xmlns="http://www.w3.org/2000/svg">
<path d="M6 17H42" stroke="#F3F5F7" stroke-width="4"/>
<path d="M6 31H42" stroke="#F3F5F7" stroke-width="4"/>
<circle cx="24" cy="24" r="20" stroke="#F3F5F7" stroke-width="4"/>
<path d="M32 24C32 29.8568 30.9169 35.0624 29.2503 38.7287C27.5017 42.5757 25.4949 44 24 44C22.5051 44 20.4983 42.5757 18.7497 38.7287C17.0831 35.0624 16 29.8568 16 24C16 18.1432 17.0831 12.9376 18.7497 9.27126C20.4983 5.42433 22.5051 4 24 4C25.4949 4 27.5017 5.42433 29.2503 9.27126C30.9169 12.9376 32 18.1432 32 24Z" stroke="#F3F5F7" stroke-width="4"/>
</svg>
