<svg width="500" height="500" viewBox="0 0 500 500" fill="none" xmlns="http://www.w3.org/2000/svg">
<rect width="500" height="500" rx="20" fill="black"/>
<path d="M314.248 240.53C313.072 239.967 311.878 239.424 310.668 238.905C308.56 200.078 287.345 177.849 251.721 177.622C251.559 177.621 251.399 177.621 251.238 177.621C229.93 177.621 212.209 186.716 201.301 203.266L220.893 216.706C229.041 204.344 241.829 201.708 251.247 201.708C251.356 201.708 251.465 201.708 251.573 201.709C263.302 201.784 272.153 205.194 277.882 211.845C282.051 216.687 284.839 223.378 286.22 231.822C275.82 230.054 264.573 229.511 252.55 230.2C218.68 232.151 196.906 251.905 198.369 279.353C199.111 293.276 206.047 305.254 217.899 313.078C227.919 319.693 240.825 322.927 254.238 322.195C271.951 321.224 285.847 314.466 295.542 302.108C302.904 292.724 307.561 280.563 309.617 265.239C318.059 270.334 324.315 277.038 327.77 285.097C333.645 298.797 333.988 321.309 315.619 339.663C299.524 355.741 280.178 362.697 250.941 362.912C218.509 362.672 193.981 352.271 178.034 331.998C163.1 313.014 155.383 285.595 155.095 250.5C155.383 215.405 163.1 187.985 178.034 169.002C193.981 148.729 218.509 138.328 250.941 138.087C283.608 138.33 308.563 148.781 325.121 169.152C333.24 179.141 339.361 191.704 343.396 206.351L366.355 200.226C361.464 182.196 353.768 166.66 343.294 153.776C322.067 127.66 291.022 114.277 251.021 114H250.861C210.941 114.277 180.243 127.709 159.621 153.925C141.27 177.254 131.803 209.715 131.485 250.404L131.484 250.5L131.485 250.596C131.803 291.285 141.27 323.746 159.621 347.075C180.243 373.29 210.941 386.724 250.861 387H251.021C286.511 386.754 311.528 377.462 332.137 356.872C359.1 329.934 358.288 296.169 349.401 275.441C343.025 260.577 330.87 248.504 314.248 240.53ZM252.97 298.143C238.126 298.979 222.704 292.316 221.943 278.045C221.38 267.463 229.474 255.656 253.881 254.249C256.676 254.088 259.419 254.009 262.113 254.009C270.979 254.009 279.273 254.87 286.813 256.519C284 291.642 267.504 297.345 252.97 298.143Z" fill="white"/>
</svg>
